# xmcd
#
# Track frame offsets:
# 150
# 18359
# 34198
# 49582
# 62838
# 80641
# 96288
# 111041
# 126493
# 145596
#
# Disc length: 2139 seconds
#
#
# Revision: 0
# Processed by: cddbd v1.5PL3 Copyright (c) Steve Scherf et al.
# Submitted via: FreeRIP 2.53 
#
DISCID=8508590a
DTITLE=Conley, Earl Thomas - Super Hits
DYEAR=1900
DGENRE=
TTITLE0=I Can't Win For Lovin' You
TTITLE1=Love Don't Care (Whose Heart It Breaks)
TTITLE2=Nobody Falls Like A Fool
TTITLE3=Chance Of Lovin' You
TTITLE4=Angel In Disguise
TTITLE5=Don't Make It Easy For Me
TTITLE6=Holding Her And Loving You
TTITLE7=Your Lover's On The Line
TTITLE8=Somewhere Between Right And Wrong
TTITLE9=Fire And Smoke
EXTD=
EXTT0=
EXTT1=
EXTT2=
EXTT3=
EXTT4=
EXTT5=
EXTT6=
EXTT7=
EXTT8=
EXTT9=
PLAYORDER=
